<svg version="1.2" baseProfile="tiny" xmlns="http://www.w3.org/2000/svg" viewBox="0 0 500 500"><path fill="#ED2224" d="M160.105 228.01l-44.97-44.97 44.97-44.973 44.972 44.972z"/><path fill="#F3F3F3" d="M160.144 272.916l-44.97-44.97 44.97-44.973 44.972 44.972z"/><path fill="#F3F3F3" d="M160.112 317.893l-44.97-44.972 44.97-44.97 44.972 44.97z"/><path fill="#ED2224" d="M160.15 362.8l-44.97-44.973 44.97-44.97 44.973 44.97zM339.87 227.997l-44.97-44.972 44.97-44.972 44.973 44.972z"/><path fill="#F3F3F3" d="M339.91 272.903l-44.97-44.972 44.97-44.97 44.972 44.97z"/><path fill="#F3F3F3" d="M339.878 317.88l-44.972-44.972 44.972-44.972 44.972 44.972z"/><path fill="#ED2224" d="M339.917 362.785l-44.972-44.97 44.972-44.973 44.97 44.972z"/><path fill="#8F7747" d="M205.05 272.877l-44.97-44.97 44.97-44.973 44.972 44.972z"/><path fill="#010101" d="M249.988 228.003l-44.97-44.97 44.97-44.973 44.972 44.972z"/><path fill="#010101" d="M249.995 317.886l-44.972-44.97 44.972-44.973 44.972 44.972z"/><path fill="#8F7747" d="M294.933 272.87L249.96 227.9l44.973-44.972 44.97 44.97z"/><path fill="#FFF" d="M250.027 272.91l-44.97-44.972 44.97-44.972L295 227.938z"/></svg>