<?xml version="1.0" encoding="UTF-8"?>
<svg width="30px" height="30px" viewBox="0 0 30 30" version="1.1" xmlns="http://www.w3.org/2000/svg" xmlns:xlink="http://www.w3.org/1999/xlink">
    <!-- Generator: Sketch 44.1 (41455) - http://www.bohemiancoding.com/sketch -->
    <title>facebook</title>
    <desc>Created with Sketch.</desc>
    <defs></defs>
    <g id="Symbols" stroke="none" stroke-width="1" fill="none" fill-rule="evenodd">
        <g id="facebook" stroke="#000000">
            <g id="SociaI-icons_facebook-28" transform="translate(5.000000, 5.000000)">
                <path d="M19.9999636,3.33355151 C19.9999636,1.58199856 18.4186333,0 16.6666348,0 L3.33332879,0 C1.58133038,0 0,1.58199856 0,3.33355151 L0,16.6664485 C0,18.4180014 1.58133038,20 3.33355151,20 L10,20 L10,12.4444614 L7.55555677,12.4444614 L7.55555677,9.11113263 L10,9.11113263 L10,7.81246563 C10,5.57269039 11.6819985,3.55558313 13.7499966,3.55558313 L16.4444396,3.55558313 L16.4444396,6.88891192 L13.7499966,6.88891192 C13.4551069,6.88891192 13.1111063,7.24691159 13.1111063,7.78313383 L13.1111063,9.11113263 L16.4444351,9.11113263 L16.4444351,12.4444614 L13.1111063,12.4444614 L13.1111063,20 L16.6666576,20 C18.418656,20 19.9999864,18.4180014 19.9999864,16.6664485 L19.9999864,3.33355151 L19.9999636,3.33355151 Z" id="Shape"></path>
            </g>
        </g>
    </g>
</svg>