<?xml version="1.0" encoding="UTF-8"?>
<svg width="30px" height="30px" viewBox="0 0 30 30" version="1.1" xmlns="http://www.w3.org/2000/svg" xmlns:xlink="http://www.w3.org/1999/xlink">
    <!-- Generator: Sketch 44.1 (41455) - http://www.bohemiancoding.com/sketch -->
    <title>github</title>
    <desc>Created with Sketch.</desc>
    <defs>
        <path d="M9.81192857,0.0219818571 L9.81192851,0.0219818567 C8.08536422,0.00949278524 6.38747851,0.463578285 4.89764279,1.33626757 L4.89764174,1.33626818 C3.41412745,2.19237532 2.18232031,3.42418247 1.32621316,4.90769675 L1.32621317,4.90769675 C0.457263167,6.39615389 0.00570602415,8.09135389 0.0190703099,9.8148396 L0.0190700014,9.81487305 C-2.87128432e-05,11.8864088 0.657009287,13.9076516 1.89052,15.5720088 L1.89052028,15.5720092 C3.07628456,17.2486234 4.76878456,18.5004806 6.71909171,19.1434377 L6.71909172,19.1434377 C6.89329029,19.1948398 7.08155029,19.1603697 7.22623457,19.0505806 L7.22623456,19.0505806 C7.33485742,18.9522849 7.39490813,18.8112963 7.39052028,18.6648663 C7.39052028,18.6648663 7.39052028,18.4005806 7.39052028,17.9505806 C7.39052028,17.5005806 7.39052028,17.1434377 7.39052028,16.8220092 L7.09766313,16.8720092 L7.09766347,16.8720091 C6.86147919,16.9090306 6.62229562,16.9233816 6.38337919,16.9148663 L6.3833789,16.9148663 C6.0833089,16.9038016 5.78466604,16.8679568 5.49050033,16.8076977 L5.49050024,16.8076977 C5.18994953,16.7516733 4.9063931,16.6270063 4.66192881,16.443412 L4.66192886,16.4434121 C4.39793886,16.2453471 4.20099886,15.9711271 4.09764315,15.6576978 L3.94764315,15.3791263 L3.9476432,15.3791265 C3.8407782,15.1472457 3.70648606,14.9290207 3.5476432,14.7291265 L3.54764324,14.7291265 C3.40402682,14.5244708 3.2128261,14.3577829 2.99050039,14.2434122 L2.9047861,14.1648408 L2.90478612,14.1648408 C2.84425426,14.1215516 2.78910255,14.0711958 2.7405004,14.0148408 L2.74050039,14.0148408 C2.69373425,13.9613335 2.65521468,13.9011472 2.62621468,13.8362694 L2.62621469,13.8362694 C2.59989961,13.7832693 2.62153208,13.7189715 2.67453211,13.6926565 C2.67967511,13.690103 2.68501504,13.687967 2.6905004,13.6862692 L2.69050045,13.6862692 C2.80829902,13.6390255 2.93537687,13.6194751 3.06192902,13.6291263 L3.31907187,13.6648406 L3.31907202,13.6648407 C3.54455845,13.7201097 3.75773774,13.8170092 3.94764345,13.950555 L3.94764336,13.9505549 C4.2017605,14.1228377 4.41409407,14.3498142 4.56907193,14.6148406 L4.56907183,14.6148404 C4.73920326,14.9351833 4.98425969,15.2096461 5.28335755,15.4148404 L5.28335761,15.4148405 C5.51812118,15.5890233 5.79866404,15.6908133 6.09050047,15.7076976 L6.09050062,15.7076976 C6.3301399,15.7100501 6.56941776,15.6885151 6.80478633,15.6434119 L6.80478656,15.6434118 C7.00227442,15.6021532 7.19411442,15.5374068 7.37621442,15.4505547 L7.37621441,15.4505548 C7.42581398,14.9524941 7.64819798,14.487512 8.00478584,14.1362691 L8.00478509,14.136269 C7.56390723,14.0933298 7.12693509,14.016919 6.69764223,13.9076983 L6.69764239,13.9076984 C6.27832668,13.7918134 5.87518525,13.6238384 5.49764239,13.4076984 L5.4976421,13.4076982 C5.10189281,13.1922011 4.75239924,12.9009575 4.46907067,12.5505554 L4.46907064,12.5505553 C4.16543136,12.1501425 3.93785278,11.6974053 3.79764207,11.214841 L3.79764185,11.2148403 C3.61262043,10.5939175 3.52349828,9.94838317 3.53335614,9.3005546 L3.53335598,9.30051451 C3.52950037,8.32483594 3.90320312,7.38548594 4.5762417,6.67910022 L4.5762416,6.67909996 C4.25823017,5.83547853 4.2890616,4.89997853 4.66192874,4.07912853 L4.66192873,4.07912854 C5.03285373,4.01869532 5.41338588,4.07877889 5.74764302,4.25055711 L5.7476422,4.2505568 C6.11205149,4.38770037 6.46545649,4.55246394 6.80478506,4.74341251 L7.3476422,5.08626966 L7.34764191,5.08626974 C8.95099191,4.64366474 10.6442919,4.64366474 12.2476419,5.08626909 L12.7333562,4.77912623 L12.7333558,4.77912646 C13.1190615,4.55441146 13.5257487,4.36781646 13.9476487,4.22198574 L13.9476485,4.22198583 C14.2687271,4.06483654 14.6317306,4.01476654 14.9833628,4.07912869 L14.9833627,4.07912856 C15.360892,4.89807142 15.3968749,5.83360714 15.0833627,6.67912856 L15.0833627,6.67912858 C15.7450949,7.39290144 16.1058699,8.33450001 16.0905056,9.30770001 L16.0905059,9.30771916 C16.1000884,9.95787488 16.0109773,10.6057192 15.8262144,11.2291477 L15.8262145,11.2291475 C15.6881502,11.7161083 15.4577816,12.1719975 15.1476431,12.5720047 L15.1476431,12.5720046 C14.8591203,12.9181403 14.5076988,13.2065482 14.1119288,13.4220046 L14.111929,13.4220045 C13.7343862,13.6381445 13.3312433,13.8061195 12.911929,13.9220045 L12.9119293,13.9220044 C12.4826414,14.0312252 12.045665,14.1076359 11.6047864,14.1505759 L11.6047864,14.1505759 C12.0852029,14.6263294 12.3287007,15.2913759 12.2690721,15.9648616 C12.2690721,16.4839094 12.2690721,17.0553402 12.2690721,17.6791473 C12.2690721,18.3029566 12.2690721,18.6291473 12.2690721,18.6577187 L12.2690721,18.6577196 C12.2646844,18.8041496 12.3247351,18.9451382 12.4333585,19.0434339 L12.4333585,19.0434339 C12.5780428,19.1532232 12.7663028,19.1876932 12.9405014,19.136291 L12.9405007,19.1362912 C14.8908078,18.4933312 16.5833078,17.2414841 17.7690721,15.5648627 L17.7690721,15.5648627 C19.0025721,13.9005055 19.6596078,11.8792555 19.6405007,9.80771981 L19.6405006,9.80772765 C19.6529911,8.08116337 19.1989071,6.38327765 18.3262221,4.89344194 L18.3262222,4.89344226 C17.4701151,3.40992797 16.238308,2.17812083 14.7547937,1.32201369 L14.7547945,1.32201419 C13.2551945,0.449321333 11.5468445,7.0473514e-06 9.81193739,0.0219856188 L9.81192857,0.0219818571 Z" id="path-1"></path>
    </defs>
    <g id="Symbols" stroke="none" stroke-width="1" fill="none" fill-rule="evenodd">
        <g id="github">
            <g id="32px_Github" transform="translate(5.000000, 5.000000)">
                <g id="Clipped">
                    <mask id="mask-2" fill="white">
                        <use xlink:href="#path-1"></use>
                    </mask>
                    <g id="path-1"></g>
                    <polygon id="Shape" stroke="#202020" mask="url(#mask-2)" points="-1.42857143 -1.42857143 21.7357143 -1.42857143 21.7357143 21.2571429 -1.42857143 21.2571429"></polygon>
                </g>
                <g id="path-1-link" transform="translate(0.338044, 0.335161)" stroke="#000000">
                    <path d="M9.81192857,0.0219818571 L9.81192851,0.0219818567 C8.08536422,0.00949278524 6.38747851,0.463578285 4.89764279,1.33626757 L4.89764174,1.33626818 C3.41412745,2.19237532 2.18232031,3.42418247 1.32621316,4.90769675 L1.32621317,4.90769675 C0.457263167,6.39615389 0.00570602415,8.09135389 0.0190703099,9.8148396 L0.0190700014,9.81487305 C-2.87128432e-05,11.8864088 0.657009287,13.9076516 1.89052,15.5720088 L1.89052028,15.5720092 C3.07628456,17.2486234 4.76878456,18.5004806 6.71909171,19.1434377 L6.71909172,19.1434377 C6.89329029,19.1948398 7.08155029,19.1603697 7.22623457,19.0505806 L7.22623456,19.0505806 C7.33485742,18.9522849 7.39490813,18.8112963 7.39052028,18.6648663 C7.39052028,18.6648663 7.39052028,18.4005806 7.39052028,17.9505806 C7.39052028,17.5005806 7.39052028,17.1434377 7.39052028,16.8220092 L7.09766313,16.8720092 L7.09766347,16.8720091 C6.86147919,16.9090306 6.62229562,16.9233816 6.38337919,16.9148663 L6.3833789,16.9148663 C6.0833089,16.9038016 5.78466604,16.8679568 5.49050033,16.8076977 L5.49050024,16.8076977 C5.18994953,16.7516733 4.9063931,16.6270063 4.66192881,16.443412 L4.66192886,16.4434121 C4.39793886,16.2453471 4.20099886,15.9711271 4.09764315,15.6576978 L3.94764315,15.3791263 L3.9476432,15.3791265 C3.8407782,15.1472457 3.70648606,14.9290207 3.5476432,14.7291265 L3.54764324,14.7291265 C3.40402682,14.5244708 3.2128261,14.3577829 2.99050039,14.2434122 L2.9047861,14.1648408 L2.90478612,14.1648408 C2.84425426,14.1215516 2.78910255,14.0711958 2.7405004,14.0148408 L2.74050039,14.0148408 C2.69373425,13.9613335 2.65521468,13.9011472 2.62621468,13.8362694 L2.62621469,13.8362694 C2.59989961,13.7832693 2.62153208,13.7189715 2.67453211,13.6926565 C2.67967511,13.690103 2.68501504,13.687967 2.6905004,13.6862692 L2.69050045,13.6862692 C2.80829902,13.6390255 2.93537687,13.6194751 3.06192902,13.6291263 L3.31907187,13.6648406 L3.31907202,13.6648407 C3.54455845,13.7201097 3.75773774,13.8170092 3.94764345,13.950555 L3.94764336,13.9505549 C4.2017605,14.1228377 4.41409407,14.3498142 4.56907193,14.6148406 L4.56907183,14.6148404 C4.73920326,14.9351833 4.98425969,15.2096461 5.28335755,15.4148404 L5.28335761,15.4148405 C5.51812118,15.5890233 5.79866404,15.6908133 6.09050047,15.7076976 L6.09050062,15.7076976 C6.3301399,15.7100501 6.56941776,15.6885151 6.80478633,15.6434119 L6.80478656,15.6434118 C7.00227442,15.6021532 7.19411442,15.5374068 7.37621442,15.4505547 L7.37621441,15.4505548 C7.42581398,14.9524941 7.64819798,14.487512 8.00478584,14.1362691 L8.00478509,14.136269 C7.56390723,14.0933298 7.12693509,14.016919 6.69764223,13.9076983 L6.69764239,13.9076984 C6.27832668,13.7918134 5.87518525,13.6238384 5.49764239,13.4076984 L5.4976421,13.4076982 C5.10189281,13.1922011 4.75239924,12.9009575 4.46907067,12.5505554 L4.46907064,12.5505553 C4.16543136,12.1501425 3.93785278,11.6974053 3.79764207,11.214841 L3.79764185,11.2148403 C3.61262043,10.5939175 3.52349828,9.94838317 3.53335614,9.3005546 L3.53335598,9.30051451 C3.52950037,8.32483594 3.90320312,7.38548594 4.5762417,6.67910022 L4.5762416,6.67909996 C4.25823017,5.83547853 4.2890616,4.89997853 4.66192874,4.07912853 L4.66192873,4.07912854 C5.03285373,4.01869532 5.41338588,4.07877889 5.74764302,4.25055711 L5.7476422,4.2505568 C6.11205149,4.38770037 6.46545649,4.55246394 6.80478506,4.74341251 L7.3476422,5.08626966 L7.34764191,5.08626974 C8.95099191,4.64366474 10.6442919,4.64366474 12.2476419,5.08626909 L12.7333562,4.77912623 L12.7333558,4.77912646 C13.1190615,4.55441146 13.5257487,4.36781646 13.9476487,4.22198574 L13.9476485,4.22198583 C14.2687271,4.06483654 14.6317306,4.01476654 14.9833628,4.07912869 L14.9833627,4.07912856 C15.360892,4.89807142 15.3968749,5.83360714 15.0833627,6.67912856 L15.0833627,6.67912858 C15.7450949,7.39290144 16.1058699,8.33450001 16.0905056,9.30770001 L16.0905059,9.30771916 C16.1000884,9.95787488 16.0109773,10.6057192 15.8262144,11.2291477 L15.8262145,11.2291475 C15.6881502,11.7161083 15.4577816,12.1719975 15.1476431,12.5720047 L15.1476431,12.5720046 C14.8591203,12.9181403 14.5076988,13.2065482 14.1119288,13.4220046 L14.111929,13.4220045 C13.7343862,13.6381445 13.3312433,13.8061195 12.911929,13.9220045 L12.9119293,13.9220044 C12.4826414,14.0312252 12.045665,14.1076359 11.6047864,14.1505759 L11.6047864,14.1505759 C12.0852029,14.6263294 12.3287007,15.2913759 12.2690721,15.9648616 C12.2690721,16.4839094 12.2690721,17.0553402 12.2690721,17.6791473 C12.2690721,18.3029566 12.2690721,18.6291473 12.2690721,18.6577187 L12.2690721,18.6577196 C12.2646844,18.8041496 12.3247351,18.9451382 12.4333585,19.0434339 L12.4333585,19.0434339 C12.5780428,19.1532232 12.7663028,19.1876932 12.9405014,19.136291 L12.9405007,19.1362912 C14.8908078,18.4933312 16.5833078,17.2414841 17.7690721,15.5648627 L17.7690721,15.5648627 C19.0025721,13.9005055 19.6596078,11.8792555 19.6405007,9.80771981 L19.6405006,9.80772765 C19.6529911,8.08116337 19.1989071,6.38327765 18.3262221,4.89344194 L18.3262222,4.89344226 C17.4701151,3.40992797 16.238308,2.17812083 14.7547937,1.32201369 L14.7547945,1.32201419 C13.2551945,0.449321333 11.5468445,7.0473514e-06 9.81193739,0.0219856188 L9.81192857,0.0219818571 Z" id="path-1"></path>
                </g>
            </g>
        </g>
    </g>
</svg>