<?xml version="1.0" encoding="UTF-8"?>
<svg width="30px" height="30px" viewBox="0 0 30 30" version="1.1" xmlns="http://www.w3.org/2000/svg" xmlns:xlink="http://www.w3.org/1999/xlink">
    <!-- Generator: Sketch 44.1 (41455) - http://www.bohemiancoding.com/sketch -->
    <title>twitter</title>
    <desc>Created with Sketch.</desc>
    <defs>
        <path d="M19.8635294,2.31129882 L19.8635296,2.31129857 C19.3111724,3.12988916 18.6209296,3.84640916 17.8235296,4.42894563 C17.8235296,4.54659292 17.8235296,4.72306351 17.8235296,4.95835739 L17.8235301,4.95817404 C17.8206961,6.06493404 17.6590665,7.16556698 17.343583,8.22640933 L17.3435832,8.22640858 C17.0108296,9.3297874 16.5185479,10.3785803 15.8823503,11.3395333 L15.8823502,11.3395334 C15.2396252,12.3311146 14.4574843,13.2249875 13.5599972,13.9936511 L13.559997,13.9936513 C12.5960794,14.8001571 11.4933994,15.4244466 10.3058794,15.8360042 L10.3058794,15.8360042 C8.99979941,16.307079 7.62136647,16.5459736 6.23293823,16.5418865 L6.23293878,16.5418865 C4.02037172,16.5538688 1.85301643,15.9156898 -2.3942556e-06,14.7065924 L-2.64826807e-06,14.7065924 C0.325864411,14.741508 0.653442528,14.7580048 0.981166763,14.7560042 L0.981166286,14.7560042 C2.81551452,14.7761306 4.60064864,14.162804 6.03528393,13.0195336 L6.03528389,13.0195336 C4.29450742,12.9865716 2.7664486,11.852576 2.23057801,10.1960042 L2.23057772,10.1960042 C2.48510195,10.2363642 2.7422923,10.2576001 2.99998948,10.2595337 L2.99998926,10.2595337 C3.36220149,10.2585489 3.72279161,10.2111029 4.07293043,10.1183572 L4.07293035,10.1183572 C3.15272799,9.93612235 2.3257727,9.43645082 1.73645976,8.70659247 L1.73645963,8.70659232 C1.12541751,7.9854135 0.7946361,7.06824644 0.804701982,6.12306291 L0.804701982,6.07365136 L0.804701499,6.07365108 C1.36867326,6.39052238 2.00052268,6.56724779 2.64705444,6.5889452 L2.64705472,6.58894539 C2.09484578,6.21938139 1.64162413,5.72011009 1.32705472,5.13482774 L1.32705489,5.13482805 C0.999012301,4.54068899 0.82888336,3.87232217 0.832937242,3.19365158 L0.83293724,3.19365111 C0.829304649,2.47106758 1.02205159,1.76107699 1.3905843,1.13953346 L1.3905833,1.13953223 C2.40288213,2.38913459 3.66515507,3.41337694 5.09646566,4.14659106 L5.09646479,4.14659061 C6.54775185,4.89761414 8.14417538,5.32621884 9.77646479,5.4030612 L9.77646486,5.40306152 C9.71136705,5.09673046 9.67824839,4.78446928 9.67764133,4.47129681 L9.67764131,4.47129546 C9.66063554,3.38777311 10.0923888,2.34543193 10.8705825,1.59129546 L10.8705822,1.5912957 C12.4659611,-3.11967478e-06 15.0492716,0.00330040974 16.6405705,1.59867613 C16.6682335,1.62641003 16.6954957,1.65454086 16.7223484,1.68306013 L16.7223485,1.68306009 C17.6364591,1.50946103 18.5131791,1.1774048 19.3129368,0.701883622 L19.3129369,0.701883293 C19.0179585,1.64849976 18.3780098,2.44969741 17.5199957,2.94658917 L17.5199961,2.94658913 C18.3286267,2.85361949 19.1186502,2.63945549 19.8635255,2.31129572 L19.8635294,2.31129882 Z" id="path-1"></path>
    </defs>
    <g id="Symbols" stroke="none" stroke-width="1" fill="none" fill-rule="evenodd" stroke-linejoin="round">
        <g id="twitter">
            <g id="32px_Twitter" transform="translate(5.000000, 7.000000)">
                <g id="Clipped" transform="translate(0.000000, 0.705882)">
                    <mask id="mask-2" fill="white">
                        <use xlink:href="#path-1"></use>
                    </mask>
                    <g id="path-1"></g>
                    <polygon id="Shape" stroke="#202020" mask="url(#mask-2)" points="-1.41176471 -1.41176471 21.9811765 -1.41176471 21.9811765 18.2541176 -1.41176471 18.2541176"></polygon>
                </g>
                <g id="path-1-link" transform="translate(0.352941, 0.660464)" stroke="#000000">
                    <path d="M19.8635294,2.31129882 L19.8635296,2.31129857 C19.3111724,3.12988916 18.6209296,3.84640916 17.8235296,4.42894563 C17.8235296,4.54659292 17.8235296,4.72306351 17.8235296,4.95835739 L17.8235301,4.95817404 C17.8206961,6.06493404 17.6590665,7.16556698 17.343583,8.22640933 L17.3435832,8.22640858 C17.0108296,9.3297874 16.5185479,10.3785803 15.8823503,11.3395333 L15.8823502,11.3395334 C15.2396252,12.3311146 14.4574843,13.2249875 13.5599972,13.9936511 L13.559997,13.9936513 C12.5960794,14.8001571 11.4933994,15.4244466 10.3058794,15.8360042 L10.3058794,15.8360042 C8.99979941,16.307079 7.62136647,16.5459736 6.23293823,16.5418865 L6.23293878,16.5418865 C4.02037172,16.5538688 1.85301643,15.9156898 -2.3942556e-06,14.7065924 L-2.64826807e-06,14.7065924 C0.325864411,14.741508 0.653442528,14.7580048 0.981166763,14.7560042 L0.981166286,14.7560042 C2.81551452,14.7761306 4.60064864,14.162804 6.03528393,13.0195336 L6.03528389,13.0195336 C4.29450742,12.9865716 2.7664486,11.852576 2.23057801,10.1960042 L2.23057772,10.1960042 C2.48510195,10.2363642 2.7422923,10.2576001 2.99998948,10.2595337 L2.99998926,10.2595337 C3.36220149,10.2585489 3.72279161,10.2111029 4.07293043,10.1183572 L4.07293035,10.1183572 C3.15272799,9.93612235 2.3257727,9.43645082 1.73645976,8.70659247 L1.73645963,8.70659232 C1.12541751,7.9854135 0.7946361,7.06824644 0.804701982,6.12306291 L0.804701982,6.07365136 L0.804701499,6.07365108 C1.36867326,6.39052238 2.00052268,6.56724779 2.64705444,6.5889452 L2.64705472,6.58894539 C2.09484578,6.21938139 1.64162413,5.72011009 1.32705472,5.13482774 L1.32705489,5.13482805 C0.999012301,4.54068899 0.82888336,3.87232217 0.832937242,3.19365158 L0.83293724,3.19365111 C0.829304649,2.47106758 1.02205159,1.76107699 1.3905843,1.13953346 L1.3905833,1.13953223 C2.40288213,2.38913459 3.66515507,3.41337694 5.09646566,4.14659106 L5.09646479,4.14659061 C6.54775185,4.89761414 8.14417538,5.32621884 9.77646479,5.4030612 L9.77646486,5.40306152 C9.71136705,5.09673046 9.67824839,4.78446928 9.67764133,4.47129681 L9.67764131,4.47129546 C9.66063554,3.38777311 10.0923888,2.34543193 10.8705825,1.59129546 L10.8705822,1.5912957 C12.4659611,-3.11967478e-06 15.0492716,0.00330040974 16.6405705,1.59867613 C16.6682335,1.62641003 16.6954957,1.65454086 16.7223484,1.68306013 L16.7223485,1.68306009 C17.6364591,1.50946103 18.5131791,1.1774048 19.3129368,0.701883622 L19.3129369,0.701883293 C19.0179585,1.64849976 18.3780098,2.44969741 17.5199957,2.94658917 L17.5199961,2.94658913 C18.3286267,2.85361949 19.1186502,2.63945549 19.8635255,2.31129572 L19.8635294,2.31129882 Z" id="path-1"></path>
                </g>
            </g>
        </g>
    </g>
</svg>