<?xml version="1.0" encoding="UTF-8"?>
<svg width="30px" height="30px" viewBox="0 0 30 30" version="1.1" xmlns="http://www.w3.org/2000/svg" xmlns:xlink="http://www.w3.org/1999/xlink">
    <!-- Generator: Sketch 44.1 (41455) - http://www.bohemiancoding.com/sketch -->
    <title>instagram</title>
    <desc>Created with Sketch.</desc>
    <defs>
        <path d="M19.3333333,9.66666667 C19.3333333,11.5866667 19.3133333,12.92 19.2733333,13.6666667 L19.2733335,13.666688 C19.2869596,15.1668813 18.7292142,16.6160547 17.7133202,17.7200147 L17.7133202,17.7200147 C16.6100202,18.7318947 15.1636602,19.2870813 13.6666669,19.2733347 C12.9288869,19.3133347 11.5955535,19.3333347 9.66666686,19.3333347 C7.73778019,19.3333347 6.40444686,19.3133347 5.66666686,19.2733347 L5.66666692,19.2733347 C4.16647359,19.2869661 2.71730025,18.729226 1.61333359,17.7133347 L1.61333412,17.7133352 C0.601447455,16.6100352 0.0462474545,15.1636619 0.0600007879,13.6666686 C0.0200007879,12.9200019 7.87855527e-07,11.5866686 7.87855527e-07,9.66666857 C7.87855527e-07,7.74666857 0.0200007879,6.41333524 0.0600007879,5.66666857 L0.0600007644,5.6666644 C0.051573631,4.17015774 0.611510098,2.72623774 1.62666743,1.6266644 L1.62666772,1.62666414 C2.72624105,0.611504138 4.17016105,0.0515708044 5.66666772,0.0599974711 C6.41333439,0.0199974711 7.74666772,-2.52888754e-06 9.66666772,-2.52888754e-06 C11.5866677,-2.52888754e-06 12.9200011,0.0199974711 13.6666677,0.0599974711 L13.6666678,0.0599974699 C15.1668612,0.0463660699 16.6160345,0.604106137 17.7200012,1.61999747 L17.7200013,1.61999765 C18.731888,2.72329765 19.287088,4.16967099 19.2733347,5.66666432 C19.3133347,6.41333099 19.3333347,7.74666432 19.3333347,9.66666432 L19.3333333,9.66666667 Z M9.66666667,1.74 L7.37333333,1.74 L6.16,1.78 L6.15999949,1.78000002 C5.72659816,1.79413608 5.29457283,1.83644762 4.86666616,1.90666668 L4.86666569,1.90666676 C4.56012503,1.95658529 4.25884703,2.03469476 3.96666569,2.14000009 L3.9666659,2.14000001 C3.12937256,2.47169135 2.46443923,3.13180668 2.1266659,3.96666668 L2.12666555,3.96666764 C2.02136022,4.25884897 1.94325088,4.56012697 1.89333222,4.86666764 L1.89333209,4.86666841 C1.82311276,5.29457708 1.78080142,5.72660174 1.76666542,6.16000174 C1.76666542,6.66666841 1.75333209,7.07111508 1.72666542,7.37333508 C1.69999876,7.67555708 1.69999876,8.12000174 1.72666542,8.70666841 C1.72666542,9.28889041 1.72666542,9.60888841 1.72666542,9.66666841 C1.72666542,9.72444621 1.72666542,10.0444464 1.72666542,10.6266684 C1.72666542,11.2088904 1.72666542,11.6533351 1.72666542,11.9600017 C1.72666542,12.2666684 1.73999876,12.6711151 1.76666542,13.1733351 L1.7666654,13.1733343 C1.7808014,13.6067356 1.82311293,14.0387609 1.89333206,14.4666676 L1.89333194,14.4666668 C1.9432504,14.7732075 2.02135927,15.0744855 2.12666527,15.3666668 L2.12666523,15.3666667 C2.4614159,16.2065734 3.12675856,16.8719134 3.96666523,17.2066667 L3.96666532,17.2066668 C4.25884665,17.3119728 4.56012465,17.3900814 4.86666532,17.4400001 L4.8666648,17.44 C5.29457346,17.5102193 5.72659813,17.5525307 6.15999813,17.5666667 L7.37333146,17.6066667 L11.9533315,17.6066667 L13.1666648,17.5666667 L13.1666644,17.5666667 C13.6000658,17.5525307 14.0320911,17.5102191 14.4599978,17.44 L14.4599978,17.44 C14.7665385,17.3900815 15.0678165,17.3119727 15.3599978,17.2066667 L15.3599975,17.2066668 C16.1999041,16.8719161 16.8652441,16.2065735 17.1999975,15.3666668 L17.1999975,15.3666667 C17.3053035,15.0744853 17.3834122,14.7732073 17.4333308,14.4666667 L17.4333311,14.4666653 C17.5035504,14.0387566 17.5458617,13.6067319 17.5599977,13.1733319 C17.5599977,12.6666653 17.5733311,12.2622186 17.5999977,11.9599986 C17.6266644,11.6577766 17.6266644,11.2133319 17.5999977,10.6266653 C17.5999977,10.0444433 17.5999977,9.72444527 17.5999977,9.66666527 C17.5999977,9.60888747 17.5999977,9.28888727 17.5999977,8.70666527 C17.5999977,8.12444327 17.5999977,7.67999861 17.5999977,7.37333194 C17.5999977,7.06666527 17.5888871,6.66221861 17.5666659,6.15999861 L17.5666659,6.15999824 C17.5525299,5.72659691 17.5102183,5.29457157 17.4399993,4.86666491 L17.4399993,4.8666654 C17.3900809,4.56012473 17.311972,4.25884673 17.206666,3.9666654 L17.206666,3.96666542 C16.8719153,3.12675875 16.2065727,2.46141875 15.366666,2.12666542 L15.3666655,2.12666524 C15.0744842,2.02135991 14.7732062,1.94325057 14.4666655,1.89333191 L14.4666663,1.89333204 C14.0387577,1.82311271 13.606733,1.78080138 13.173333,1.76666538 L11.9599997,1.73333198 L9.66666635,1.73333198 L9.66666667,1.74 Z M15.6666667,4.78666667 L15.6666667,4.78658415 C15.6664582,5.39041549 15.1767874,5.87975082 14.5729534,5.87953749 C13.969122,5.879329 13.4797867,5.38965815 13.48,4.78582415 C13.4801001,4.49612615 13.5951707,4.21831015 13.7999414,4.01338415 L13.7999413,4.01338423 C14.2267553,3.58625156 14.9190146,3.58599356 15.346148,4.01280729 C15.5514773,4.21798329 15.6667886,4.49638796 15.6666666,4.78666062 L15.6666667,4.78666667 Z M14.3333333,9.66666667 L14.3333333,9.66666667 C14.3333333,12.2439933 12.2439933,14.3333333 9.66666667,14.3333333 L9.66666646,14.3333333 C7.0893398,14.3333332 4.9999998,12.2439933 4.9999998,9.66666667 C4.9999998,9.66666667 4.9999998,9.66666667 4.9999998,9.66666667 L4.9999998,9.66666737 C4.99999941,7.0893407 7.0893398,5.0000007 9.66666646,5.0000007 L9.66666641,5.0000007 C12.2439931,5.00000028 14.3333331,7.0893407 14.3333331,9.66666737 C14.3333331,9.66666768 14.3333331,9.66666797 14.3333331,9.66666828 L14.3333333,9.66666667 Z M12.6933333,9.66666667 L12.6933333,9.66660102 C12.6933333,7.99175435 11.3414133,6.63096102 9.6666,6.62000102 L9.66660014,6.62000102 C7.98400014,6.6200372 6.62000014,7.98406769 6.62000014,9.66666769 L6.62000014,9.66666736 C6.61999988,11.349294 7.98404014,12.713334 9.6666668,12.713334 C9.66666684,12.713334 9.6666669,12.713334 9.66666694,12.713334 L9.66666677,12.713334 C11.3492934,12.7133343 12.7133334,11.349294 12.7133334,9.66666736 C12.7133334,9.66666725 12.7133334,9.66666715 12.7133334,9.66666704 L12.6933333,9.66666667 Z" id="path-1"></path>
    </defs>
    <g id="Symbols" stroke="none" stroke-width="1" fill="none" fill-rule="evenodd">
        <g id="instagram">
            <g id="32px_Instagram" transform="translate(5.000000, 5.000000)">
                <g id="Clipped">
                    <mask id="mask-2" fill="white">
                        <use xlink:href="#path-1"></use>
                    </mask>
                    <g id="path-1"></g>
                    <polygon id="Shape" stroke="#000000" mask="url(#mask-2)" points="-0.806666667 -0.806666667 20.8133333 -0.806666667 20.8133333 20.8133333 -0.806666667 20.8133333"></polygon>
                </g>
                <g id="path-1-link" transform="translate(0.333333, 0.333333)" stroke="#202020">
                    <path d="M19.3333333,9.66666667 C19.3333333,11.5866667 19.3133333,12.92 19.2733333,13.6666667 L19.2733335,13.666688 C19.2869596,15.1668813 18.7292142,16.6160547 17.7133202,17.7200147 L17.7133202,17.7200147 C16.6100202,18.7318947 15.1636602,19.2870813 13.6666669,19.2733347 C12.9288869,19.3133347 11.5955535,19.3333347 9.66666686,19.3333347 C7.73778019,19.3333347 6.40444686,19.3133347 5.66666686,19.2733347 L5.66666692,19.2733347 C4.16647359,19.2869661 2.71730025,18.729226 1.61333359,17.7133347 L1.61333412,17.7133352 C0.601447455,16.6100352 0.0462474545,15.1636619 0.0600007879,13.6666686 C0.0200007879,12.9200019 7.87855527e-07,11.5866686 7.87855527e-07,9.66666857 C7.87855527e-07,7.74666857 0.0200007879,6.41333524 0.0600007879,5.66666857 L0.0600007644,5.6666644 C0.051573631,4.17015774 0.611510098,2.72623774 1.62666743,1.6266644 L1.62666772,1.62666414 C2.72624105,0.611504138 4.17016105,0.0515708044 5.66666772,0.0599974711 C6.41333439,0.0199974711 7.74666772,-2.52888754e-06 9.66666772,-2.52888754e-06 C11.5866677,-2.52888754e-06 12.9200011,0.0199974711 13.6666677,0.0599974711 L13.6666678,0.0599974699 C15.1668612,0.0463660699 16.6160345,0.604106137 17.7200012,1.61999747 L17.7200013,1.61999765 C18.731888,2.72329765 19.287088,4.16967099 19.2733347,5.66666432 C19.3133347,6.41333099 19.3333347,7.74666432 19.3333347,9.66666432 L19.3333333,9.66666667 Z M9.66666667,1.74 L7.37333333,1.74 L6.16,1.78 L6.15999949,1.78000002 C5.72659816,1.79413608 5.29457283,1.83644762 4.86666616,1.90666668 L4.86666569,1.90666676 C4.56012503,1.95658529 4.25884703,2.03469476 3.96666569,2.14000009 L3.9666659,2.14000001 C3.12937256,2.47169135 2.46443923,3.13180668 2.1266659,3.96666668 L2.12666555,3.96666764 C2.02136022,4.25884897 1.94325088,4.56012697 1.89333222,4.86666764 L1.89333209,4.86666841 C1.82311276,5.29457708 1.78080142,5.72660174 1.76666542,6.16000174 C1.76666542,6.66666841 1.75333209,7.07111508 1.72666542,7.37333508 C1.69999876,7.67555708 1.69999876,8.12000174 1.72666542,8.70666841 C1.72666542,9.28889041 1.72666542,9.60888841 1.72666542,9.66666841 C1.72666542,9.72444621 1.72666542,10.0444464 1.72666542,10.6266684 C1.72666542,11.2088904 1.72666542,11.6533351 1.72666542,11.9600017 C1.72666542,12.2666684 1.73999876,12.6711151 1.76666542,13.1733351 L1.7666654,13.1733343 C1.7808014,13.6067356 1.82311293,14.0387609 1.89333206,14.4666676 L1.89333194,14.4666668 C1.9432504,14.7732075 2.02135927,15.0744855 2.12666527,15.3666668 L2.12666523,15.3666667 C2.4614159,16.2065734 3.12675856,16.8719134 3.96666523,17.2066667 L3.96666532,17.2066668 C4.25884665,17.3119728 4.56012465,17.3900814 4.86666532,17.4400001 L4.8666648,17.44 C5.29457346,17.5102193 5.72659813,17.5525307 6.15999813,17.5666667 L7.37333146,17.6066667 L11.9533315,17.6066667 L13.1666648,17.5666667 L13.1666644,17.5666667 C13.6000658,17.5525307 14.0320911,17.5102191 14.4599978,17.44 L14.4599978,17.44 C14.7665385,17.3900815 15.0678165,17.3119727 15.3599978,17.2066667 L15.3599975,17.2066668 C16.1999041,16.8719161 16.8652441,16.2065735 17.1999975,15.3666668 L17.1999975,15.3666667 C17.3053035,15.0744853 17.3834122,14.7732073 17.4333308,14.4666667 L17.4333311,14.4666653 C17.5035504,14.0387566 17.5458617,13.6067319 17.5599977,13.1733319 C17.5599977,12.6666653 17.5733311,12.2622186 17.5999977,11.9599986 C17.6266644,11.6577766 17.6266644,11.2133319 17.5999977,10.6266653 C17.5999977,10.0444433 17.5999977,9.72444527 17.5999977,9.66666527 C17.5999977,9.60888747 17.5999977,9.28888727 17.5999977,8.70666527 C17.5999977,8.12444327 17.5999977,7.67999861 17.5999977,7.37333194 C17.5999977,7.06666527 17.5888871,6.66221861 17.5666659,6.15999861 L17.5666659,6.15999824 C17.5525299,5.72659691 17.5102183,5.29457157 17.4399993,4.86666491 L17.4399993,4.8666654 C17.3900809,4.56012473 17.311972,4.25884673 17.206666,3.9666654 L17.206666,3.96666542 C16.8719153,3.12675875 16.2065727,2.46141875 15.366666,2.12666542 L15.3666655,2.12666524 C15.0744842,2.02135991 14.7732062,1.94325057 14.4666655,1.89333191 L14.4666663,1.89333204 C14.0387577,1.82311271 13.606733,1.78080138 13.173333,1.76666538 L11.9599997,1.73333198 L9.66666635,1.73333198 L9.66666667,1.74 Z M15.6666667,4.78666667 L15.6666667,4.78658415 C15.6664582,5.39041549 15.1767874,5.87975082 14.5729534,5.87953749 C13.969122,5.879329 13.4797867,5.38965815 13.48,4.78582415 C13.4801001,4.49612615 13.5951707,4.21831015 13.7999414,4.01338415 L13.7999413,4.01338423 C14.2267553,3.58625156 14.9190146,3.58599356 15.346148,4.01280729 C15.5514773,4.21798329 15.6667886,4.49638796 15.6666666,4.78666062 L15.6666667,4.78666667 Z M14.3333333,9.66666667 L14.3333333,9.66666667 C14.3333333,12.2439933 12.2439933,14.3333333 9.66666667,14.3333333 L9.66666646,14.3333333 C7.0893398,14.3333332 4.9999998,12.2439933 4.9999998,9.66666667 C4.9999998,9.66666667 4.9999998,9.66666667 4.9999998,9.66666667 L4.9999998,9.66666737 C4.99999941,7.0893407 7.0893398,5.0000007 9.66666646,5.0000007 L9.66666641,5.0000007 C12.2439931,5.00000028 14.3333331,7.0893407 14.3333331,9.66666737 C14.3333331,9.66666768 14.3333331,9.66666797 14.3333331,9.66666828 L14.3333333,9.66666667 Z M12.6933333,9.66666667 L12.6933333,9.66660102 C12.6933333,7.99175435 11.3414133,6.63096102 9.6666,6.62000102 L9.66660014,6.62000102 C7.98400014,6.6200372 6.62000014,7.98406769 6.62000014,9.66666769 L6.62000014,9.66666736 C6.61999988,11.349294 7.98404014,12.713334 9.6666668,12.713334 C9.66666684,12.713334 9.6666669,12.713334 9.66666694,12.713334 L9.66666677,12.713334 C11.3492934,12.7133343 12.7133334,11.349294 12.7133334,9.66666736 C12.7133334,9.66666725 12.7133334,9.66666715 12.7133334,9.66666704 L12.6933333,9.66666667 Z" id="path-1"></path>
                </g>
            </g>
        </g>
    </g>
</svg>