<?xml version="1.0" encoding="UTF-8"?>
<svg width="30px" height="30px" viewBox="0 0 30 30" version="1.1" xmlns="http://www.w3.org/2000/svg" xmlns:xlink="http://www.w3.org/1999/xlink">
    <!-- Generator: Sketch 44.1 (41455) - http://www.bohemiancoding.com/sketch -->
    <title>linkedin</title>
    <desc>Created with Sketch.</desc>
    <defs></defs>
    <g id="Symbols" stroke="none" stroke-width="1" fill="none" fill-rule="evenodd" stroke-linejoin="round">
        <g id="linkedin" stroke="#202020">
            <g id="SociaI-icons_linkedin-1.1" transform="translate(5.000000, 5.000000)">
                <path d="M18.7652273,0 L1.605,0 C0.783263636,0 9.09090909e-06,0.557963636 9.09090909e-06,1.35486818 L9.09090909e-06,18.6041409 C9.09090909e-06,19.4010409 0.783486364,20.0000091 1.605,20.0000091 L18.7652273,20.0000091 C19.5869636,20.0000091 20.0000136,19.4008227 20.0000136,18.6041409 L20.0000136,1.35486818 C20.0000136,0.558190909 19.5869636,8.07434927e-16 18.7652273,0 Z M5.90909091,16.8181818 L3.18181818,16.8181818 L3.18181818,7.72727273 L5.90909091,7.72727273 L5.90909091,16.8181818 Z M4.70064545,6.36363636 L4.68028664,6.36363636 C3.66010936,6.36363636 2.99878664,5.70105 2.99878664,4.82763636 C2.99878664,3.93655 3.67957755,3.27537727 4.71988664,3.27537727 C5.760423,3.27537727 6.40049573,3.92752273 6.42062755,4.81883636 C6.42062759,5.69247273 5.76064573,6.36363636 4.70064573,6.36363636 L4.70064545,6.36363636 Z M17.2727364,16.8181818 L14.0909182,16.8181818 L14.0909182,11.9029545 C14.0909182,10.6805318 13.6780673,9.84671364 12.5782455,9.84671364 C11.7368227,9.84671364 11.2335864,10.4093773 11.0143364,10.9523545 C10.9329023,11.1465459 10.9091009,11.4177 10.9091009,11.68885 L10.9091009,16.8181682 L7.90391909,16.8181682 C7.90391909,16.8181682 7.94374191,8.63635 7.90391909,7.72725909 L10.9091009,7.72725909 L10.9091009,8.96456818 C11.3636464,8.34530455 12.0945282,7.46182273 13.7098055,7.46182273 C15.7114555,7.46182273 17.2727373,8.76031364 17.2727373,11.5539409 L17.2727373,16.8181682 L17.2727364,16.8181818 Z M10.9252818,8.99345455 C10.930651,8.98495382 10.9378105,8.97466195 10.94497,8.96481832 L10.94497,8.99345455 L10.9252818,8.99345455 Z" id="Shape"></path>
            </g>
        </g>
    </g>
</svg>